<svg xmlns="http://www.w3.org/2000/svg" width="512" height="512" viewBox="0 0 32 32"><path fill="#000000" d="m27 25.586l-2-2V21h-2v3.414L25.586 27L27 25.586z"/><path fill="#000000" d="M24 31c-3.86 0-7-3.14-7-7s3.14-7 7-7s7 3.14 7 7s-3.14 7-7 7zm0-12c-2.757 0-5 2.243-5 5s2.243 5 5 5s5-2.243 5-5s-2.243-5-5-5zm4-4h2V5c0-1.103-.897-2-2-2h-3v2h3v10z"/><circle cx="9" cy="13" r="2" fill="#000000"/><circle cx="16" cy="13" r="2" fill="#000000"/><circle cx="23" cy="13" r="2" fill="#000000"/><path fill="#000000" d="M7 23H4c-1.103 0-2-.897-2-2V5c0-1.103.897-2 2-2h3v2H4v16h3v2Z"/></svg>